<?xml version="1.0" encoding="utf-8"?>
<!-- Generator: Adobe Illustrator 19.0.0, SVG Export Plug-In . SVG Version: 6.00 Build 0)  -->
<svg version="1.1" id="圖層_1" xmlns="http://www.w3.org/2000/svg" xmlns:xlink="http://www.w3.org/1999/xlink" x="0px" y="0px"
	 viewBox="0 0 300 365" style="enable-background:new 0 0 300 365;" xml:space="preserve">
<style type="text/css">
	.st0{fill:#FBF9D3;}
</style>
<g id="XMLID_2_">
	<g id="XMLID_4_">
		<g id="XMLID_6_">
			<g id="XMLID_13_">
				
					<rect id="XMLID_23_" x="197.1" y="247" transform="matrix(-0.8862 0.4633 -0.4633 -0.8862 507.504 370.6319)" class="st0" width="22.2" height="1.3"/>
				
					<rect id="XMLID_22_" x="204.6" y="275.1" transform="matrix(-1 1.435212e-03 -1.435212e-03 -1 431.8374 551.0984)" class="st0" width="22.2" height="1.3"/>
				
					<rect id="XMLID_21_" x="198.8" y="303.7" transform="matrix(-0.9125 -0.4091 0.4091 -0.9125 276.9337 667.9731)" class="st0" width="22.2" height="1.3"/>
				
					<rect id="XMLID_20_" x="181.2" y="327.1" transform="matrix(-0.6419 -0.7668 0.7668 -0.6419 64.4449 685.5977)" class="st0" width="22.2" height="1.3"/>
				
					<rect id="XMLID_19_" x="154.9" y="340.2" transform="matrix(-0.2227 -0.9749 0.9749 -0.2227 -129.3874 578.6198)" class="st0" width="22.2" height="1.3"/>
				
					<rect id="XMLID_18_" x="81.5" y="247" transform="matrix(0.8862 0.4633 -0.4633 0.8862 125.2829 -14.7387)" class="st0" width="22.2" height="1.3"/>
				
					<rect id="XMLID_17_" x="74.1" y="275.1" transform="matrix(1 1.435229e-03 -1.435229e-03 1 0.3958 -0.1219)" class="st0" width="22.2" height="1.3"/>
				
					<rect id="XMLID_16_" x="79.9" y="303.7" transform="matrix(0.9125 -0.4091 0.4091 0.9125 -116.5591 63.8504)" class="st0" width="22.2" height="1.3"/>
				
					<rect id="XMLID_15_" x="97.5" y="327.1" transform="matrix(0.6419 -0.7668 0.7668 0.6419 -212.4356 200.6065)" class="st0" width="22.2" height="1.3"/>
				
					<rect id="XMLID_14_" x="123.8" y="340.2" transform="matrix(0.2227 -0.9749 0.9749 0.2227 -227.4702 396.4757)" class="st0" width="22.2" height="1.3"/>
			</g>
			<g id="XMLID_7_">
				<path id="XMLID_12_" class="st0" d="M189.3,252.9c-4-7.4-12.8-26-15.5-32.4c-2.6-6.4-3.8-12.7-4-15.4c-0.2-2.7-3.4-3.1-3.4-3.1
					h-32.4c0,0-3.2,0.4-3.4,3.1c-0.2,2.7-1.4,9-4,15.4s-11.4,25-15.5,32.4c-4,7.4-9.8,25.5-4.3,39.9c2.7,7,12,29,43.2,29
					c30.6,0,40.5-21.9,43.2-29C199,278.4,193.4,260.3,189.3,252.9z"/>
				<g id="XMLID_8_">
					<path id="XMLID_11_" class="st0" d="M168,180.2c0,1.2-0.4,1.8-1.4,1.8h-33c-1,0-1.7-0.7-1.7-1.8v-0.4c0-1.2,0.7-1.8,1.7-1.8h33
						c1,0,1.4,0.6,1.4,1.8V180.2z"/>
					<path id="XMLID_10_" class="st0" d="M168,188c0,1.2-0.4,2-1.4,2h-33c-1,0-1.7-0.8-1.7-2v-0.4c0-1.2,0.7-2.6,1.7-2.6h33
						c1,0,1.4,1.5,1.4,2.6V188z"/>
					<path id="XMLID_9_" class="st0" d="M168,195.8c0,1.2-0.4,2.2-1.4,2.2h-33c-1,0-1.7-1-1.7-2.2v-0.4c0-1.2,0.7-2.5,1.7-2.5h33
						c1,0,1.4,1.3,1.4,2.5V195.8z"/>
				</g>
			</g>
		</g>
		<path id="XMLID_5_" class="st0" d="M159.2,174c-2.1-3-5.4-6-9.1-6c-3.7,0-7,3-9.1,6H159.2z"/>
	</g>
	<rect id="XMLID_3_" x="149" y="13" class="st0" width="2" height="157"/>
</g>
</svg>
